<svg id="Layer_1" data-name="Layer 1" xmlns="http://www.w3.org/2000/svg" viewBox="0 0 300 94.05"><title>Logo</title><polygon points="197.57 90.43 200.49 88.48 214.38 90.43 200.49 92.38 197.57 90.43" style="fill:#fff"/><polygon points="102.43 90.43 99.51 88.48 85.62 90.43 99.51 92.38 102.43 90.43" style="fill:#fff"/><path d="M297.67,1.56V64.92A675,675,0,0,0,149.25,48.43,655,655,0,0,0,2.33,64.92V1.56h62V5.63H245.71V1.56h52ZM300,0H243.37V4.07H66.62V0H0V67.85l2.86-.66A652.34,652.34,0,0,1,149.25,50.77,671.94,671.94,0,0,1,297.15,67.19L300,67.84V0Z" style="fill:#fff"/><path d="M112.84,94h-2.41V85.36h4.22a3.26,3.26,0,0,1,0,6.52h-1.81V94Zm0-4.59h1.81a0.85,0.85,0,0,0,.84-0.84,0.81,0.81,0,0,0-.25-0.6,0.8,0.8,0,0,0-.6-0.25h-1.81v1.69Z" style="fill:#fff"/><polygon points="125.44 85.36 125.44 88.49 122.29 88.49 122.29 85.36 119.88 85.36 119.88 94.05 122.29 94.05 122.29 90.91 125.44 90.91 125.44 94.05 127.85 94.05 127.85 85.36 125.44 85.36" style="fill:#fff"/><path d="M133.22,85.36l-3.4,8.69h2.59l0.47-1.21h3.37l0.46,1.21h2.58L136,85.36h-2.77Zm1.37,3.11,0.74,2h-1.51Z" style="fill:#fff"/><path d="M143.68,94h-2.41V85.36h4.22a3.26,3.26,0,0,1,3.26,3.26,3.2,3.2,0,0,1-.43,1.62,3.25,3.25,0,0,1-1.14,1.17L148.75,94H146l-1.29-2.17h-1V94Zm0-4.59h1.81a0.85,0.85,0,0,0,.84-0.84,0.81,0.81,0,0,0-.25-0.6,0.79,0.79,0,0,0-.59-0.25h-1.81v1.69Z" style="fill:#fff"/><polygon points="157.56 85.36 155.32 88.56 153.07 85.36 150.73 85.36 150.73 94.05 153.14 94.05 153.14 89.67 155.32 92.77 157.49 89.67 157.49 94.05 159.91 94.05 159.91 85.36 157.56 85.36" style="fill:#fff"/><path d="M165.28,85.36l-3.4,8.69h2.59l0.48-1.21h3.37l0.46,1.21h2.58l-3.31-8.69h-2.77Zm1.37,3.11,0.74,2h-1.51Z" style="fill:#fff"/><path d="M176.46,94a4.34,4.34,0,1,1,3.07-7.42l-1.71,1.71a1.93,1.93,0,1,0,0,2.73l1.71,1.71A4.18,4.18,0,0,1,176.46,94" style="fill:#fff"/><polygon points="186.79 85.36 185.54 87.53 184.29 85.36 181.5 85.36 184.33 90.27 184.33 94.05 186.74 94.05 186.74 90.27 189.58 85.36 186.79 85.36" style="fill:#fff"/><path d="M68,82.73a10.54,10.54,0,0,1-9.53-17A10.55,10.55,0,0,1,73.29,64l-3.62,4.6a4.68,4.68,0,1,0,.78,6.57L75,78.8a10.14,10.14,0,0,1-7,3.94" style="fill:#fff"/><path d="M98.22,58.83l9.49,20.46-6.25.44-1.33-2.85L92,77.46l-0.94,3-6.26.44L91.52,59.3ZM93.86,71.46l3.65-.26L95.37,66.6Z" style="fill:#fff"/><path d="M136.57,71.68A6.72,6.72,0,0,1,130,78.57l-11.42.26L118.1,57.76l11.42-.26a6.72,6.72,0,0,1,6.87,6.58,6.61,6.61,0,0,1-1.09,3.83,6.6,6.6,0,0,1,1.27,3.77m-12.46-6,5.5-.13a1,1,0,0,0,.74-0.36,1.21,1.21,0,0,0,0-1.65,1,1,0,0,0-.76-0.34l-5.5.13Zm5.67,7.26a1,1,0,0,0,.74-0.37,1.21,1.21,0,0,0,0-1.65,1,1,0,0,0-.76-0.32l-5.5.13L124.28,73Z" style="fill:#fff"/><rect x="140.17" y="65.03" width="21.08" height="5.85" transform="matrix(0.01, -1, 1, 0.01, 80.99, 217.86)" style="fill:#fff"/><polygon points="183.58 58.52 182.6 79.58 177.34 79.33 170.79 68.98 170.32 79.01 164.48 78.74 165.45 57.68 170.72 57.93 177.27 68.28 177.73 58.25 183.58 58.52" style="fill:#fff"/><polygon points="213.43 60.96 212.9 66.79 200.66 65.68 200.45 68.02 208.82 68.77 208.4 73.44 200.03 72.68 199.82 75.02 212.06 76.12 211.53 81.95 193.46 80.32 195.36 59.33 213.43 60.96" style="fill:#fff"/><polygon points="243.78 64.81 242.99 70.61 236.6 69.74 234.56 84.83 228.76 84.04 230.81 68.95 224.43 68.08 225.21 62.28 243.78 64.81" style="fill:#fff"/><path d="M58.52,9.17a0.52,0.52,0,0,0,.12-0.65,0.54,0.54,0,0,0-.53-0.36H42.47a0.53,0.53,0,0,0-.53.36,0.58,0.58,0,0,0,.12.65l1.06,1.07L33.64,23.77,24.16,10.24l1.07-1.07a0.52,0.52,0,0,0,.12-0.65,0.53,0.53,0,0,0-.53-0.36H9.17a0.54,0.54,0,0,0-.53.36,0.58,0.58,0,0,0,.12.65l2.52,2.52v15L9.11,28.93a0.52,0.52,0,0,0,0,.83L11.28,32V53.23L8.76,55.75a0.57,0.57,0,0,0-.12.65,0.54,0.54,0,0,0,.53.36l8-2.33q1.27-.39,2.66-0.78l5.36-1.57a0.53,0.53,0,0,0,.53-0.36,0.56,0.56,0,0,0-.12-0.65l-2.52-2.52V29.17L33.64,44.3l10.6-15.14V45.44L41.7,48a0.57,0.57,0,0,0-.12.65,0.53,0.53,0,0,0,.53.35l4.39-.43q5.76-.8,12.15-1.5a0.51,0.51,0,0,0-.13-0.63L56,43.88V32l2.19-2.19a0.52,0.52,0,0,0,0-.83L56,26.74v-15Z" style="fill:#fff"/><path d="M62.81,12.34a0.47,0.47,0,0,0,.1.53L65,14.93V27.22L63.2,29a0.42,0.42,0,0,0,0,.68L65,31.47V43.76l-2.06,2.06a0.46,0.46,0,0,0-.1.53,0.44,0.44,0,0,0,.21.23c9.71-1,20.35-1.83,31.74-2.47V35.32a0.45,0.45,0,0,0-.29-0.46,0.46,0.46,0,0,0-.53.1L91.87,37H74.59V33.19H86.1l1.38,1.38a0.33,0.33,0,0,0,.36.07A0.33,0.33,0,0,0,88,34.32v-10a0.32,0.32,0,0,0-.56-0.24L86.1,25.5H74.59V21.65H91.87l2.06,2.05a0.44,0.44,0,0,0,.53.12,0.45,0.45,0,0,0,.29-0.46V12.05H63.24a0.44,0.44,0,0,0-.44.29" style="fill:#fff"/><path d="M134,26.11a15,15,0,0,0-5.63-10,17.6,17.6,0,0,0-11.53-4.06H100.69a0.44,0.44,0,0,0-.44.27,0.41,0.41,0,0,0,.1.49l2.06,1.9V26l-1.76,1.65a0.37,0.37,0,0,0,0,.62L102.4,30V41.3l-2.06,1.9a0.4,0.4,0,0,0-.1.49,0.44,0.44,0,0,0,.1.12c7.28-.37,14.84-0.65,22.61-0.86a17.51,17.51,0,0,0,5.38-3.05,15.06,15.06,0,0,0,5.63-10l1.72-1.56a0.37,0.37,0,0,0,0-.62ZM122.26,33a7.74,7.74,0,0,1-5.44,2.07H112V20.91h4.79A7.74,7.74,0,0,1,122.26,23a6.73,6.73,0,0,1,0,10" style="fill:#fff"/><path d="M153.81,12.78a0.38,0.38,0,0,0,.1-0.47,0.44,0.44,0,0,0-.44-0.26H140.42a0.44,0.44,0,0,0-.43.26,0.38,0.38,0,0,0,.1.47l2.06,1.82v10.9l-1.77,1.59a0.35,0.35,0,0,0,0,.6l1.77,1.59v10.9L140.08,42a0.37,0.37,0,0,0-.1.47,0.42,0.42,0,0,0,.13.15q5.52-.06,11.16-0.06h2.56a0.39,0.39,0,0,0,.08-0.09,0.37,0.37,0,0,0-.1-0.47l-2.06-1.82V29.29l1.77-1.59a0.35,0.35,0,0,0,0-.6l-1.77-1.59V14.61Z" style="fill:#fff"/><path d="M177.17,20.53a8,8,0,0,1,5.44,2l6.8-6a19,19,0,0,0-24.47,0A14.32,14.32,0,0,0,160,25.37L158.19,27a0.35,0.35,0,0,0,0,.6L160,29.21a14.33,14.33,0,0,0,4.91,8.87,19,19,0,0,0,24.47,0l-6.8-6a8.46,8.46,0,0,1-10.88,0,6.49,6.49,0,0,1-2-3.22l1.45-1.28a0.35,0.35,0,0,0,0-.6l-1.45-1.28a6.5,6.5,0,0,1,2-3.2,8,8,0,0,1,5.44-2" style="fill:#fff"/><path d="M208.74,12.8a0.4,0.4,0,0,0,.1-0.48,0.44,0.44,0,0,0-.44-0.26H195.34a0.44,0.44,0,0,0-.43.26,0.4,0.4,0,0,0,.1.48l2.06,1.87V25.85l-1.77,1.63a0.36,0.36,0,0,0,0,.62l1.77,1.63V40.9L195,42.77a0.39,0.39,0,0,0-.1.48,0.42,0.42,0,0,0,.27.22q6.93,0.29,13.56.68a0.42,0.42,0,0,0,.1-0.12,0.39,0.39,0,0,0-.1-0.48l-2.05-1.87v-12l1.76-1.63a0.37,0.37,0,0,0,0-.62l-1.76-1.63V14.67Z" style="fill:#fff"/><path d="M248.45,12.88a0.47,0.47,0,0,0,.1-0.53,0.43,0.43,0,0,0-.44-0.29H235.06a0.43,0.43,0,0,0-.43.29,0.47,0.47,0,0,0,.1.53l2.08,2.06V28.52L226.45,13.75l0.87-.87a0.42,0.42,0,0,0,.1-0.53,0.43,0.43,0,0,0-.44-0.29H214.89a0.43,0.43,0,0,0-.43.29,0.47,0.47,0,0,0,.1.53l2.06,2.06V27.22L214.84,29a0.42,0.42,0,0,0,0,.68l1.76,1.79v9.95l-2.06,2.05a0.46,0.46,0,0,0-.1.53,0.43,0.43,0,0,0,.43.29l13.35,1a0.44,0.44,0,0,0,.44-0.29,0.46,0.46,0,0,0-.1-0.53l-2.05-2.06-0.3-12.23,10.32,14.78-0.87.87a0.44,0.44,0,0,0-.12.37Q241,46.7,246,47.28l2.07,0.13a0.44,0.44,0,0,0,.44-0.29,0.46,0.46,0,0,0-.1-0.53l-2.06-2.06V31.47l1.77-1.79a0.42,0.42,0,0,0,0-.68l-1.77-1.79V14.93Z" style="fill:#fff"/><path d="M287.86,19.85l2.54,2.54a0.55,0.55,0,0,0,.66.15,0.56,0.56,0,0,0,.36-0.57V8H252.53a0.54,0.54,0,0,0-.54.36,0.58,0.58,0,0,0,.12.66l2.54,2.54V26.72l-2.18,2.21a0.52,0.52,0,0,0,0,.83L254.65,32V44.79l-2.54,2.54A0.57,0.57,0,0,0,252,48h0c14.11,2.19,29,5.19,37,7.64l2.43,0.49V36.72a0.56,0.56,0,0,0-.36-0.57,0.57,0.57,0,0,0-.66.12l-2.54,2.57H266.53V34.09h14.2l1.7,1.7a0.4,0.4,0,0,0,.69-0.3V23.2a0.4,0.4,0,0,0-.69-0.3l-1.7,1.7h-14.2V19.85h21.34Z" style="fill:#fff"/></svg>